<svg xmlns="http://www.w3.org/2000/svg" width="504" height="612" viewBox="0 0 504 612" version="1.1"><path d="M 77.483 147.028 C 77.133 147.593, 77.890 148.900, 79.165 149.933 C 81.448 151.782, 81.455 151.840, 79.586 153.905 C 78.543 155.057, 77.085 156, 76.345 156 C 75.605 156, 75 156.450, 75 157 C 75 157.550, 76.523 158, 78.383 158 C 80.926 158, 81.897 157.503, 82.290 156 C 82.577 154.900, 83.305 154, 83.906 154 C 84.508 154, 85 154.900, 85 156 C 85 157.556, 85.667 158, 88 158 C 91.573 158, 91.711 157.385, 88.826 154.314 L 86.651 152 88.835 149.676 C 91.178 147.182, 90.825 146, 87.740 146 C 86.654 146, 85.584 146.873, 85.290 148 C 85.002 149.100, 84.327 150, 83.790 150 C 83.252 150, 82.577 149.100, 82.290 148 C 81.742 145.904, 78.574 145.263, 77.483 147.028 M 93.653 146.681 C 93.278 147.055, 94.125 148.564, 95.533 150.035 L 98.094 152.708 95.547 154.377 C 92.154 156.600, 92.329 158, 96 158 C 98.333 158, 99 157.556, 99 156 C 99 154.900, 99.492 154, 100.094 154 C 100.695 154, 101.423 154.900, 101.710 156 C 102.081 157.417, 103.074 158, 105.117 158 C 108.692 158, 108.709 157.537, 105.250 154.449 L 102.500 151.994 104.750 150.087 C 107.823 147.482, 107.607 145.797, 104.250 146.184 C 102.693 146.363, 101.500 147.115, 101.500 147.917 C 101.500 150.183, 99.307 150.281, 98.721 148.041 C 98.207 146.074, 95.095 145.239, 93.653 146.681 M 110.653 146.681 C 110.278 147.055, 111.125 148.564, 112.533 150.035 L 115.094 152.708 112.547 154.377 C 109.154 156.600, 109.329 158, 113 158 C 115.333 158, 116 157.556, 116 156 C 116 154.900, 116.492 154, 117.094 154 C 117.695 154, 118.423 154.900, 118.710 156 C 119.081 157.417, 120.074 158, 122.117 158 C 125.692 158, 125.709 157.537, 122.250 154.449 L 119.500 151.994 121.750 150.087 C 124.823 147.482, 124.607 145.797, 121.250 146.184 C 119.693 146.363, 118.500 147.115, 118.500 147.917 C 118.500 150.183, 116.307 150.281, 115.721 148.041 C 115.207 146.074, 112.095 145.239, 110.653 146.681 M 127.483 147.028 C 127.133 147.593, 127.894 148.942, 129.174 150.025 L 131.500 151.994 128.750 154.449 C 125.291 157.537, 125.308 158, 128.883 158 C 130.926 158, 131.919 157.417, 132.290 156 C 132.577 154.900, 133.305 154, 133.906 154 C 134.508 154, 135 154.900, 135 156 C 135 157.556, 135.667 158, 138 158 C 141.573 158, 141.711 157.385, 138.826 154.314 L 136.651 152 138.835 149.676 C 141.178 147.182, 140.825 146, 137.740 146 C 136.654 146, 135.584 146.873, 135.290 148 C 135.002 149.100, 134.327 150, 133.790 150 C 133.252 150, 132.577 149.100, 132.290 148 C 131.742 145.904, 128.574 145.263, 127.483 147.028 M 144.483 147.028 C 144.133 147.593, 144.894 148.942, 146.174 150.025 L 148.500 151.994 145.750 154.449 C 142.291 157.537, 142.308 158, 145.883 158 C 147.926 158, 148.919 157.417, 149.290 156 C 149.577 154.900, 150.305 154, 150.906 154 C 151.508 154, 152 154.900, 152 156 C 152 157.556, 152.667 158, 155 158 C 158.573 158, 158.711 157.385, 155.826 154.314 L 153.651 152 155.835 149.676 C 158.178 147.182, 157.825 146, 154.740 146 C 153.654 146, 152.584 146.873, 152.290 148 C 152.002 149.100, 151.327 150, 150.790 150 C 150.252 150, 149.577 149.100, 149.290 148 C 148.742 145.904, 145.574 145.263, 144.483 147.028 M 161.483 147.028 C 161.133 147.593, 161.894 148.942, 163.174 150.025 L 165.500 151.994 162.750 154.449 C 159.291 157.537, 159.308 158, 162.883 158 C 164.926 158, 165.919 157.417, 166.290 156 C 166.577 154.900, 167.305 154, 167.906 154 C 168.508 154, 169 154.900, 169 156 C 169 157.556, 169.667 158, 172 158 C 175.573 158, 175.711 157.385, 172.826 154.314 L 170.651 152 172.835 149.676 C 175.178 147.182, 174.825 146, 171.740 146 C 170.654 146, 169.584 146.873, 169.290 148 C 169.002 149.100, 168.327 150, 167.790 150 C 167.252 150, 166.577 149.100, 166.290 148 C 165.742 145.904, 162.574 145.263, 161.483 147.028 M 162.750 212.707 L 168 213.105 168 220.052 C 168 223.874, 168.338 227.001, 168.750 227.001 C 169.162 227.002, 169.275 223.740, 169 219.751 L 168.500 212.500 163 212.405 L 157.500 212.309 162.750 212.707 M 215.250 212.716 C 216.762 212.945, 219.238 212.945, 220.750 212.716 C 222.262 212.487, 221.025 212.300, 218 212.300 C 214.975 212.300, 213.738 212.487, 215.250 212.716 M 224.996 225.296 L 225.491 238.500 225.778 226.082 C 225.935 219.252, 225.712 213.311, 225.282 212.879 C 224.852 212.447, 224.723 218.035, 224.996 225.296 M 288.768 212.725 C 290.565 212.947, 293.265 212.943, 294.768 212.715 C 296.271 212.486, 294.800 212.304, 291.500 212.310 C 288.200 212.315, 286.971 212.502, 288.768 212.725 M 342.750 212.706 C 343.988 212.944, 346.012 212.944, 347.250 212.706 C 348.488 212.467, 347.475 212.272, 345 212.272 C 342.525 212.272, 341.512 212.467, 342.750 212.706 M 339.310 218.500 C 339.315 221.800, 339.502 223.029, 339.725 221.232 C 339.947 219.435, 339.943 216.735, 339.715 215.232 C 339.486 213.729, 339.304 215.200, 339.310 218.500 M 154.365 225.500 C 154.368 231, 154.536 233.122, 154.738 230.216 C 154.941 227.311, 154.939 222.811, 154.734 220.216 C 154.528 217.622, 154.363 220, 154.365 225.500 M 353.370 228 C 353.370 233.775, 353.535 236.137, 353.737 233.250 C 353.939 230.363, 353.939 225.637, 353.737 222.750 C 353.535 219.863, 353.370 222.225, 353.370 228 M 199.250 226.716 C 200.762 226.945, 203.238 226.945, 204.750 226.716 C 206.262 226.487, 205.025 226.300, 202 226.300 C 198.975 226.300, 197.738 226.487, 199.250 226.716 M 300.728 226.722 C 302.503 226.943, 305.653 226.946, 307.728 226.730 C 309.802 226.513, 308.350 226.333, 304.500 226.328 C 300.650 226.324, 298.952 226.501, 300.728 226.722 M 184.250 240.689 C 185.213 240.941, 186.787 240.941, 187.750 240.689 C 188.713 240.438, 187.925 240.232, 186 240.232 C 184.075 240.232, 183.287 240.438, 184.250 240.689 M 168.336 248 C 168.336 252.125, 168.513 253.813, 168.728 251.750 C 168.944 249.688, 168.944 246.313, 168.728 244.250 C 168.513 242.188, 168.336 243.875, 168.336 248 M 339.328 248.500 C 339.333 252.350, 339.513 253.802, 339.730 251.728 C 339.946 249.653, 339.943 246.503, 339.722 244.728 C 339.501 242.952, 339.324 244.650, 339.328 248.500 M 225.400 269.500 C 225.401 277.750, 225.556 280.992, 225.744 276.704 C 225.932 272.417, 225.931 265.667, 225.742 261.704 C 225.552 257.742, 225.399 261.250, 225.400 269.500 M 282.400 269.500 C 282.401 277.750, 282.556 280.992, 282.744 276.704 C 282.932 272.417, 282.931 265.667, 282.742 261.704 C 282.552 257.742, 282.399 261.250, 282.400 269.500 M 325.232 261 C 325.232 262.925, 325.438 263.712, 325.689 262.750 C 325.941 261.788, 325.941 260.212, 325.689 259.250 C 325.438 258.288, 325.232 259.075, 325.232 261 M 168.193 276.250 L 168.385 283.500 168.746 277.026 C 168.945 273.465, 169.645 270.210, 170.304 269.791 C 171.113 269.277, 170.934 269.026, 169.750 269.015 C 168.225 269.002, 168.025 269.933, 168.193 276.250 M 199.250 269.716 C 200.762 269.945, 203.238 269.945, 204.750 269.716 C 206.262 269.487, 205.025 269.300, 202 269.300 C 198.975 269.300, 197.738 269.487, 199.250 269.716 M 297.384 270.442 C 297.080 271.234, 297.042 272.697, 297.299 273.692 C 297.611 274.894, 297.807 274.594, 297.884 272.796 C 297.997 270.172, 298.201 270.081, 304.750 269.742 L 311.500 269.392 304.719 269.196 C 299.601 269.048, 297.801 269.354, 297.384 270.442 M 339.286 278.500 C 339.294 281.250, 339.488 282.256, 339.718 280.736 C 339.947 279.216, 339.941 276.966, 339.704 275.736 C 339.467 274.506, 339.279 275.750, 339.286 278.500 M 215.250 283.716 C 216.762 283.945, 219.238 283.945, 220.750 283.716 C 222.262 283.487, 221.025 283.300, 218 283.300 C 214.975 283.300, 213.738 283.487, 215.250 283.716 M 317.750 341.706 C 318.988 341.944, 321.012 341.944, 322.250 341.706 C 323.488 341.467, 322.475 341.272, 320 341.272 C 317.525 341.272, 316.512 341.467, 317.750 341.706 M 168.193 361.706 L 168 368.912 160.750 369.257 L 153.500 369.603 160.781 369.801 C 169.261 370.033, 169.257 370.037, 168.744 360.895 L 168.385 354.500 168.193 361.706 M 253.272 367 C 253.272 369.475, 253.467 370.488, 253.706 369.250 C 253.944 368.012, 253.944 365.988, 253.706 364.750 C 253.467 363.512, 253.272 364.525, 253.272 367 M 211.272 371 C 211.272 373.475, 211.467 374.488, 211.706 373.250 C 211.944 372.012, 211.944 369.988, 211.706 368.750 C 211.467 367.512, 211.272 368.525, 211.272 371 M 191.762 369.707 C 193.006 369.946, 194.806 369.937, 195.762 369.687 C 196.718 369.437, 195.700 369.241, 193.500 369.252 C 191.300 369.263, 190.518 369.468, 191.762 369.707 M 154.252 382 C 154.475 382.825, 155.746 383.583, 157.078 383.685 C 158.988 383.830, 159.077 383.753, 157.500 383.319 C 156.400 383.016, 155.128 382.258, 154.674 381.634 C 154.128 380.885, 153.985 381.009, 154.252 382 M 211 381.956 C 211 382.482, 207.738 383.068, 203.750 383.257 L 196.500 383.603 204.250 383.801 C 210.561 383.963, 212 383.721, 212 382.500 C 212 381.675, 211.775 381, 211.500 381 C 211.225 381, 211 381.430, 211 381.956 M 235.292 383.742 C 239.027 383.935, 244.877 383.934, 248.292 383.739 C 251.706 383.545, 248.650 383.387, 241.500 383.389 C 234.350 383.390, 231.556 383.550, 235.292 383.742 M 219.750 397.737 C 222.637 397.939, 227.363 397.939, 230.250 397.737 C 233.137 397.535, 230.775 397.370, 225 397.370 C 219.225 397.370, 216.863 397.535, 219.750 397.737 M 378.483 480.028 C 378.133 480.593, 378.894 481.942, 380.174 483.025 L 382.500 484.994 379.750 487.449 C 376.291 490.537, 376.308 491, 379.883 491 C 381.926 491, 382.919 490.417, 383.290 489 C 383.577 487.900, 384.305 487, 384.906 487 C 385.508 487, 386 487.900, 386 489 C 386 490.556, 386.667 491, 389 491 C 392.573 491, 392.711 490.385, 389.826 487.314 L 387.651 485 389.835 482.676 C 392.178 480.182, 391.825 479, 388.740 479 C 387.654 479, 386.584 479.873, 386.290 481 C 386.002 482.100, 385.327 483, 384.790 483 C 384.252 483, 383.577 482.100, 383.290 481 C 382.742 478.904, 379.574 478.263, 378.483 480.028 M 394.653 479.681 C 394.278 480.055, 395.125 481.564, 396.533 483.035 L 399.094 485.708 396.547 487.377 C 393.154 489.600, 393.329 491, 397 491 C 399.333 491, 400 490.556, 400 489 C 400 487.900, 400.492 487, 401.094 487 C 401.695 487, 402.423 487.900, 402.710 489 C 403.081 490.417, 404.074 491, 406.117 491 C 409.692 491, 409.709 490.537, 406.250 487.449 L 403.500 484.994 405.750 483.087 C 408.823 480.482, 408.607 478.797, 405.250 479.184 C 403.693 479.363, 402.500 480.115, 402.500 480.917 C 402.500 483.183, 400.307 483.281, 399.721 481.041 C 399.207 479.074, 396.095 478.239, 394.653 479.681 M 411.653 479.681 C 411.278 480.055, 412.125 481.564, 413.533 483.035 L 416.094 485.708 413.547 487.377 C 410.154 489.600, 410.329 491, 414 491 C 416.333 491, 417 490.556, 417 489 C 417 487.900, 417.492 487, 418.094 487 C 418.695 487, 419.423 487.900, 419.710 489 C 420.081 490.417, 421.074 491, 423.117 491 C 426.692 491, 426.709 490.537, 423.250 487.449 L 420.500 484.994 422.750 483.087 C 425.823 480.482, 425.607 478.797, 422.250 479.184 C 420.693 479.363, 419.500 480.115, 419.500 480.917 C 419.500 483.183, 417.307 483.281, 416.721 481.041 C 416.207 479.074, 413.095 478.239, 411.653 479.681 M 428.483 480.028 C 428.133 480.593, 428.894 481.942, 430.174 483.025 L 432.500 484.994 429.750 487.449 C 426.291 490.537, 426.308 491, 429.883 491 C 431.926 491, 432.919 490.417, 433.290 489 C 433.577 487.900, 434.305 487, 434.906 487 C 435.508 487, 436 487.900, 436 489 C 436 490.556, 436.667 491, 439 491 C 442.573 491, 442.711 490.385, 439.826 487.314 L 437.651 485 439.835 482.676 C 442.178 480.182, 441.825 479, 438.740 479 C 437.654 479, 436.584 479.873, 436.290 481 C 436.002 482.100, 435.327 483, 434.790 483 C 434.252 483, 433.577 482.100, 433.290 481 C 432.742 478.904, 429.574 478.263, 428.483 480.028 M 445.483 480.028 C 445.133 480.593, 445.894 481.942, 447.174 483.025 L 449.500 484.994 446.750 487.449 C 443.291 490.537, 443.308 491, 446.883 491 C 448.926 491, 449.919 490.417, 450.290 489 C 450.577 487.900, 451.305 487, 451.906 487 C 452.508 487, 453 487.900, 453 489 C 453 490.556, 453.667 491, 456 491 C 459.573 491, 459.711 490.385, 456.826 487.314 L 454.651 485 456.835 482.676 C 459.178 480.182, 458.825 479, 455.740 479 C 454.654 479, 453.584 479.873, 453.290 481 C 453.002 482.100, 452.327 483, 451.790 483 C 451.252 483, 450.577 482.100, 450.290 481 C 449.742 478.904, 446.574 478.263, 445.483 480.028 M 55.762 511.707 C 57.006 511.946, 58.806 511.937, 59.762 511.687 C 60.718 511.437, 59.700 511.241, 57.500 511.252 C 55.300 511.263, 54.518 511.468, 55.762 511.707 M 110.768 511.725 C 112.565 511.947, 115.265 511.943, 116.768 511.715 C 118.271 511.486, 116.800 511.304, 113.500 511.310 C 110.200 511.315, 108.971 511.502, 110.768 511.725 M 193.728 511.722 C 195.503 511.943, 198.653 511.946, 200.728 511.730 C 202.802 511.513, 201.350 511.333, 197.500 511.328 C 193.650 511.324, 191.952 511.501, 193.728 511.722 M 222.750 511.723 C 224.537 511.945, 227.463 511.945, 229.250 511.723 C 231.037 511.502, 229.575 511.320, 226 511.320 C 222.425 511.320, 220.963 511.502, 222.750 511.723 M 278.750 511.723 C 280.538 511.945, 283.462 511.945, 285.250 511.723 C 287.038 511.502, 285.575 511.320, 282 511.320 C 278.425 511.320, 276.962 511.502, 278.750 511.723 M 306.728 511.722 C 308.503 511.943, 311.653 511.946, 313.728 511.730 C 315.802 511.513, 314.350 511.333, 310.500 511.328 C 306.650 511.324, 304.952 511.501, 306.728 511.722 M 398.250 511.689 C 399.212 511.941, 400.788 511.941, 401.750 511.689 C 402.712 511.438, 401.925 511.232, 400 511.232 C 398.075 511.232, 397.288 511.438, 398.250 511.689 M 74.389 522.429 C 74.071 523.257, 74.043 524.511, 74.327 525.217 C 74.610 525.923, 74.878 525.487, 74.921 524.250 C 74.997 522.090, 75.359 522, 83.934 522 L 92.867 522 93.328 524.750 C 93.766 527.363, 93.782 527.350, 93.645 524.500 L 93.500 521.500 84.233 521.212 C 76.720 520.979, 74.857 521.209, 74.389 522.429 M 415.361 523.502 C 415.026 524.374, 415.034 525.367, 415.376 525.710 C 415.719 526.053, 416 525.583, 416 524.667 C 416 523.251, 417.195 523, 423.927 523 C 429.378 523, 431.984 523.390, 432.273 524.250 C 432.515 524.971, 432.647 524.865, 432.585 524 C 432.422 521.715, 416.226 521.247, 415.361 523.502 M 247.273 525.750 C 246.834 526.712, 246.740 530.425, 247.065 534 L 247.655 540.500 247.827 532.684 L 248 524.867 257.908 525.184 C 263.357 525.358, 267.605 525.163, 267.349 524.750 C 267.092 524.337, 262.649 524, 257.476 524 C 249.489 524, 247.950 524.264, 247.273 525.750 M 333.415 527.362 C 333.127 528.111, 333.056 531.374, 333.257 534.612 L 333.622 540.500 333.811 533.800 L 334 527.100 339.750 526.739 L 345.500 526.378 339.719 526.189 C 335.625 526.055, 333.785 526.398, 333.415 527.362 M 165.250 528.728 C 167.313 528.944, 170.688 528.944, 172.750 528.728 C 174.813 528.513, 173.125 528.336, 169 528.336 C 164.875 528.336, 163.188 528.513, 165.250 528.728 M 79.250 538.728 C 81.313 538.944, 84.688 538.944, 86.750 538.728 C 88.813 538.513, 87.125 538.336, 83 538.336 C 78.875 538.336, 77.188 538.513, 79.250 538.728 M 421.250 538.728 C 423.313 538.944, 426.688 538.944, 428.750 538.728 C 430.813 538.513, 429.125 538.336, 425 538.336 C 420.875 538.336, 419.188 538.513, 421.250 538.728" stroke="none" fill="#919191" fill-rule="evenodd"/><path d="M 212.549 356.250 C 211.961 358.147, 211.270 380.252, 211.738 382.250 C 212.198 384.221, 217.040 384.491, 231.613 383.356 L 239.726 382.725 239.909 369.700 C 240.046 359.960, 239.766 356.468, 238.796 355.853 C 236.584 354.450, 212.997 354.806, 212.549 356.250" stroke="none" fill="#f67779" fill-rule="evenodd"/><path d="M 155.536 212.841 C 154.309 213.084, 153.981 213.802, 154.394 215.341 C 154.712 216.529, 154.979 222.787, 154.986 229.250 L 155 241 162 241 L 169 241 169 248 L 169 255 161.473 255 L 153.945 255 154.223 269.250 L 154.500 283.500 161.250 283.796 L 168 284.091 168 276.546 L 168 269 174.893 269 C 182.807 269, 183 268.796, 183 260.418 L 183 255 190 255 L 197 255 197 262 L 197 269 200.750 269.011 C 202.813 269.017, 206.094 269.286, 208.041 269.608 L 211.582 270.194 211.175 276.597 L 210.767 283 216.302 283 C 219.346 283, 222.548 283.273, 223.418 283.607 C 224.816 284.143, 225 282.516, 225 269.607 L 225 255 217.750 255.002 L 210.500 255.005 210.832 248.002 L 211.164 241 218.082 241 L 225 241 225 227.167 C 225 219.558, 224.814 213.146, 224.587 212.917 C 224.360 212.688, 221.174 212.653, 217.506 212.839 L 210.837 213.178 211.169 219.501 L 211.500 225.824 208 226.401 C 206.075 226.718, 202.813 226.983, 200.750 226.989 L 197 227 197 234 L 197 241 190.129 241 L 183.258 241 182.581 235.009 C 181.787 227.993, 180.607 227, 173.066 227 L 168 227 168 220.093 L 168 213.185 162.629 212.843 C 159.674 212.654, 156.483 212.654, 155.536 212.841 M 283.384 213.441 C 282.250 216.398, 283.521 237.718, 284.934 239.420 C 285.827 240.496, 287.934 241, 291.540 241 L 296.836 241 297.168 248.002 L 297.500 255.005 290.250 255.002 L 283 255 283 269.546 L 283 284.091 289.750 283.796 L 296.500 283.500 297 276.500 L 297.500 269.500 304.250 269.204 L 311 268.909 311 261.911 L 311 254.912 318.250 255.206 L 325.500 255.500 325.841 261.500 C 326.028 264.800, 326.402 267.725, 326.673 268 C 326.943 268.275, 329.940 268.725, 333.332 269 L 339.500 269.500 339.795 276.795 L 340.089 284.089 346.795 283.795 L 353.500 283.500 353.500 269.500 L 353.500 255.500 346.205 255.205 L 338.911 254.911 339.205 248.205 L 339.500 241.500 346.250 240.592 L 353 239.685 353 226.342 C 353 216.386, 352.683 212.976, 351.750 212.905 C 351.063 212.853, 348.138 212.740, 345.251 212.655 L 340.002 212.500 340.001 219.231 C 340 226.675, 340.493 226.196, 331.586 227.399 C 329.434 227.690, 327.324 228.281, 326.899 228.714 C 326.473 229.146, 325.984 231.975, 325.812 235 L 325.500 240.500 318.250 240.794 L 311 241.088 311 234.044 L 311 227 304 227 L 297 227 297 220 L 297 213 292.082 213 C 289.377 213, 286.456 212.728, 285.590 212.396 C 284.638 212.031, 283.767 212.444, 283.384 213.441 M 184.307 341.789 C 183.650 342.207, 182.975 345.237, 182.807 348.524 L 182.500 354.500 175.793 354.795 L 169.086 355.089 168.793 362.295 L 168.500 369.500 161.250 369.794 L 154 370.088 154.015 375.294 C 154.039 383.346, 154.142 383.406, 166.655 382.684 C 182 381.798, 181.694 381.949, 182.511 374.906 L 183.196 369 190.098 369 L 197 369 197 376 L 197 383 204 383 L 211 383 211 378.154 C 211 375.488, 211.292 369.188, 211.650 364.154 L 212.299 355 226.150 355 L 240 355 240 369 L 240 383 247.035 383 L 254.070 383 253.785 368.952 L 253.500 354.905 281.480 354.982 C 296.869 355.025, 309.810 355.410, 310.238 355.838 C 310.666 356.266, 311.592 358.615, 312.296 361.058 C 313.467 365.122, 313.871 365.522, 317.038 365.760 C 325.215 366.374, 326.999 367.006, 327.015 369.295 C 327.046 373.783, 327.954 374.083, 340.580 373.783 L 352.500 373.500 352.796 366.743 C 353.080 360.261, 352.985 359.945, 350.481 358.993 C 349.045 358.447, 346.189 358, 344.135 358 C 342.081 358, 339.973 357.573, 339.450 357.051 C 338.928 356.528, 335.575 355.741, 332 355.301 L 325.500 354.500 325.206 348.390 L 324.912 342.281 318.206 341.648 C 308.657 340.746, 185.744 340.876, 184.307 341.789 M 211.655 390.250 C 211.999 393.688, 212.329 396.567, 212.390 396.649 C 212.450 396.732, 218.575 396.957, 226 397.149 L 239.500 397.500 239.796 390.750 L 240.091 384 225.561 384 L 211.031 384 211.655 390.250 M 74.625 525.125 C 74.281 526.844, 74.001 530.556, 74.002 533.375 L 74.005 538.500 84.002 538.504 L 94 538.508 93.989 534.004 C 93.983 531.527, 93.699 527.813, 93.358 525.750 L 92.738 522 83.994 522 L 75.250 522 74.625 525.125 M 415.630 525.250 C 415.299 526.487, 415.021 529.975, 415.013 533 L 414.999 538.500 423.996 538.500 L 432.992 538.500 432.982 533 C 432.965 523.069, 432.903 523, 424 523 C 416.791 523, 416.190 523.162, 415.630 525.250 M 248 531.882 C 248 535.707, 247.727 539.548, 247.393 540.418 C 246.863 541.800, 248.135 542, 257.433 542 L 268.081 542 267.790 533.750 L 267.500 525.500 257.750 525.214 L 248 524.928 248 531.882 M 339.750 526.739 L 334 527.100 334 532.968 C 334 536.196, 333.727 539.548, 333.393 540.418 C 332.867 541.789, 333.999 542, 341.893 542 L 351 542 351 534 L 351 526 348.250 526.189 C 346.738 526.293, 342.913 526.541, 339.750 526.739 M 161.009 535.750 L 161 543 172 543 L 183 543 183 535.593 L 183 528.185 172.009 528.343 L 161.018 528.500 161.009 535.750" stroke="none" fill="#4b24af" fill-rule="evenodd"/><path d="M 204.667 42.667 C 204.300 43.033, 204 45.713, 204 48.621 C 204 53.817, 203.943 53.918, 200.750 54.413 C 198.963 54.690, 189.625 55.273, 180 55.708 L 162.500 56.500 162.204 63.250 L 161.909 70 147.583 70 L 133.258 70 132.581 75.991 C 131.797 82.916, 130.577 84, 123.566 84 L 119 84 119 91.454 L 119 98.909 112.250 99.204 L 105.500 99.500 105.190 104.970 C 105.020 107.978, 104.402 111.016, 103.818 111.720 C 103.194 112.471, 100.523 113, 97.353 113 C 92.474 113, 91.856 113.249, 90.975 115.565 C 90.439 116.976, 90 123.276, 90 129.565 L 90 141 86.125 141 C 83.994 141, 80.844 141.281, 79.125 141.625 L 76 142.250 76 149.125 C 76 152.906, 76.380 156, 76.845 156 C 77.310 156, 78.543 155.057, 79.586 153.905 C 81.455 151.840, 81.448 151.782, 79.165 149.933 C 77.890 148.900, 77.133 147.593, 77.483 147.028 C 78.574 145.263, 81.742 145.904, 82.290 148 C 82.963 150.573, 84.617 150.573, 85.290 148 C 85.584 146.873, 86.654 146, 87.740 146 C 90.825 146, 91.178 147.182, 88.835 149.676 L 86.651 152 88.826 154.314 C 91.711 157.385, 91.573 158, 88 158 C 85.667 158, 85 157.556, 85 156 C 85 154.900, 84.508 154, 83.906 154 C 83.305 154, 82.577 154.900, 82.290 156 C 81.919 157.417, 80.926 158, 78.883 158 L 76 158 76 171 L 76 184 69 184 L 62 184 62 205.454 L 62 226.909 55.250 227.204 L 48.500 227.500 48.500 369 L 48.500 510.500 55 511 L 61.500 511.500 61.794 518.750 L 62.088 526 67.974 526 C 73.318 526, 73.890 525.792, 74.180 523.750 C 74.486 521.597, 74.909 521.500, 84 521.500 L 93.500 521.500 93.816 524.250 C 94.081 526.553, 94.610 527, 97.066 527 C 101.724 527, 104 523.923, 104 517.625 C 104 512.405, 104.090 512.232, 107.125 511.625 C 108.844 511.281, 112.219 511, 114.625 511 L 119 511 119 506.071 C 119 500.900, 120.724 498.009, 123.821 497.989 C 124.745 497.983, 127.188 497.699, 129.250 497.358 L 133 496.738 133 503.850 C 133 511.823, 132.869 511.701, 142 512.236 L 146.500 512.500 146.764 517 C 147.298 526.112, 147.195 526, 155.019 526 C 159.006 526, 162 526.429, 162 527 C 162 527.571, 165 528, 169 528 C 173 528, 176 527.571, 176 527 C 176 526.429, 178.985 526, 182.956 526 L 189.912 526 190.206 518.750 L 190.500 511.500 197.250 511.204 L 204 510.909 204 503.954 L 204 497 211.500 497 L 219 497 218.998 504.250 L 218.996 511.500 225.748 511.500 L 232.500 511.500 232.792 518.670 L 233.084 525.839 240.034 526.170 C 244.928 526.402, 247.124 526.130, 247.460 525.250 C 248.049 523.708, 266.559 523.477, 267.500 525 C 267.840 525.550, 269.647 526, 271.515 526 L 274.912 526 275.206 518.750 L 275.500 511.500 282.184 511.206 L 288.867 510.912 289.552 505.427 C 290.357 498.988, 291.605 498, 298.934 498 L 304 498 304 504.454 L 304 510.909 310.750 511.204 L 317.500 511.500 317.794 518.750 L 318.088 526 325.044 526 L 332 526 332.177 533.250 L 332.353 540.500 332.927 533.500 L 333.500 526.500 347.250 526.222 L 361 525.944 361 520.543 C 361 513.762, 362.555 512.040, 368.821 511.882 C 371.395 511.816, 373.837 511.816, 374.250 511.882 C 374.663 511.947, 375 508.574, 375 504.386 L 375 496.773 379.750 497.443 C 388.500 498.679, 388.036 498.213, 389.479 507.205 L 390.074 510.910 396.787 511.205 L 403.500 511.500 403.794 518.750 L 404.088 526 409.427 526 C 413.926 526, 414.849 525.685, 415.290 524 C 415.759 522.205, 416.654 522, 424 522 C 431.346 522, 432.241 522.205, 432.710 524 C 433.163 525.732, 434.074 526, 439.500 526 L 445.766 526 446.633 519.250 L 447.500 512.500 451.500 512.233 C 453.700 512.087, 456.512 511.741, 457.750 511.464 L 460 510.962 460 368.981 L 460 227 454.559 227 C 451.566 227, 448.833 226.539, 448.485 225.976 C 448.137 225.412, 447.294 216.196, 446.611 205.494 C 445.928 194.792, 445.052 185.719, 444.664 185.331 C 444.276 184.942, 441.267 184.430, 437.979 184.192 L 432 183.760 432 163.005 L 432 142.250 428.875 141.625 C 427.156 141.281, 424.006 141, 421.875 141 L 418 141 418 127 L 418 113 410.546 113 L 403.091 113 402.796 106.250 L 402.500 99.500 397 98.989 C 393.975 98.709, 390.938 98.120, 390.250 97.680 C 389.511 97.208, 389 94.741, 389 91.641 C 389 85.580, 387.844 84, 383.411 84 C 378.494 84, 376.045 81.347, 375.334 75.250 L 374.721 70 360.361 70 L 346 70 346 63.979 C 346 58.691, 345.726 57.838, 343.750 56.978 C 342.512 56.439, 333.599 55.629, 323.943 55.177 C 314.286 54.726, 305.849 54.024, 305.193 53.619 C 304.506 53.194, 304 50.576, 304 47.441 L 304 42 254.667 42 C 227.533 42, 205.033 42.300, 204.667 42.667 M 117.881 52.781 C 117.552 54.769, 117.698 55.702, 118.253 55.147 C 118.757 54.643, 119.002 53.166, 118.797 51.865 C 118.482 49.864, 118.342 50.004, 117.881 52.781 M 93.653 146.681 C 93.278 147.055, 94.125 148.564, 95.533 150.035 L 98.094 152.708 95.547 154.377 C 92.154 156.600, 92.329 158, 96 158 C 98.333 158, 99 157.556, 99 156 C 99 154.900, 99.492 154, 100.094 154 C 100.695 154, 101.423 154.900, 101.710 156 C 102.081 157.417, 103.074 158, 105.117 158 C 108.692 158, 108.709 157.537, 105.250 154.449 L 102.500 151.994 104.750 150.087 C 107.823 147.482, 107.607 145.797, 104.250 146.184 C 102.693 146.363, 101.500 147.115, 101.500 147.917 C 101.500 150.183, 99.307 150.281, 98.721 148.041 C 98.207 146.074, 95.095 145.239, 93.653 146.681 M 110.653 146.681 C 110.278 147.055, 111.125 148.564, 112.533 150.035 L 115.094 152.708 112.547 154.377 C 109.154 156.600, 109.329 158, 113 158 C 115.333 158, 116 157.556, 116 156 C 116 154.900, 116.492 154, 117.094 154 C 117.695 154, 118.423 154.900, 118.710 156 C 119.081 157.417, 120.074 158, 122.117 158 C 125.692 158, 125.709 157.537, 122.250 154.449 L 119.500 151.994 121.750 150.087 C 124.823 147.482, 124.607 145.797, 121.250 146.184 C 119.693 146.363, 118.500 147.115, 118.500 147.917 C 118.500 150.183, 116.307 150.281, 115.721 148.041 C 115.207 146.074, 112.095 145.239, 110.653 146.681 M 127.483 147.028 C 127.133 147.593, 127.894 148.942, 129.174 150.025 L 131.500 151.994 128.750 154.449 C 125.291 157.537, 125.308 158, 128.883 158 C 130.926 158, 131.919 157.417, 132.290 156 C 132.577 154.900, 133.305 154, 133.906 154 C 134.508 154, 135 154.900, 135 156 C 135 157.556, 135.667 158, 138 158 C 141.573 158, 141.711 157.385, 138.826 154.314 L 136.651 152 138.835 149.676 C 141.178 147.182, 140.825 146, 137.740 146 C 136.654 146, 135.584 146.873, 135.290 148 C 135.002 149.100, 134.327 150, 133.790 150 C 133.252 150, 132.577 149.100, 132.290 148 C 131.742 145.904, 128.574 145.263, 127.483 147.028 M 144.483 147.028 C 144.133 147.593, 144.894 148.942, 146.174 150.025 L 148.500 151.994 145.750 154.449 C 142.291 157.537, 142.308 158, 145.883 158 C 147.926 158, 148.919 157.417, 149.290 156 C 149.577 154.900, 150.305 154, 150.906 154 C 151.508 154, 152 154.900, 152 156 C 152 157.556, 152.667 158, 155 158 C 158.573 158, 158.711 157.385, 155.826 154.314 L 153.651 152 155.835 149.676 C 158.178 147.182, 157.825 146, 154.740 146 C 153.654 146, 152.584 146.873, 152.290 148 C 152.002 149.100, 151.327 150, 150.790 150 C 150.252 150, 149.577 149.100, 149.290 148 C 148.742 145.904, 145.574 145.263, 144.483 147.028 M 161.483 147.028 C 161.133 147.593, 161.894 148.942, 163.174 150.025 L 165.500 151.994 162.750 154.449 C 159.291 157.537, 159.308 158, 162.883 158 C 164.926 158, 165.919 157.417, 166.290 156 C 166.577 154.900, 167.305 154, 167.906 154 C 168.508 154, 169 154.900, 169 156 C 169 157.556, 169.667 158, 172 158 C 175.573 158, 175.711 157.385, 172.826 154.314 L 170.651 152 172.835 149.676 C 175.178 147.182, 174.825 146, 171.740 146 C 170.654 146, 169.584 146.873, 169.290 148 C 169.002 149.100, 168.327 150, 167.790 150 C 167.252 150, 166.577 149.100, 166.290 148 C 165.742 145.904, 162.574 145.263, 161.483 147.028 M 461 166.965 C 461 167.495, 462.012 168.461, 463.250 169.110 C 465.488 170.285, 465.490 170.280, 463.595 168.146 C 461.479 165.762, 461 165.544, 461 166.965 M 154 221.817 C 154 227.264, 154.286 233.809, 154.636 236.360 L 155.272 241 161.636 241 L 168 241 168 248 L 168 255 161 255 L 154 255 154 269.544 L 154 284.088 161.250 283.794 L 168.500 283.500 168.796 276.758 C 169.125 269.238, 169.068 269.287, 178 268.764 L 182.500 268.500 182.796 261.750 L 183.091 255 190.046 255 L 197 255 197 262.500 L 197 270 204 270 L 211 270 211 276.393 C 211 283.807, 211.230 284, 220.082 284 L 226 284 226 269.500 L 226 255 218.500 255 L 211 255 211 248 L 211 241 217.955 241 L 224.909 241 225.505 237.750 C 225.832 235.963, 225.965 229.550, 225.800 223.500 L 225.500 212.500 220.566 212.188 C 211.607 211.621, 211 212.085, 211 219.519 L 211 226 204 226 L 197 226 197 233.500 C 197 241.952, 197.345 241.694, 187.767 240.382 L 183.255 239.763 182.689 234.276 C 182.378 231.259, 181.835 228.502, 181.484 228.150 C 181.132 227.799, 178.292 227.284, 175.172 227.006 L 169.500 226.500 169 219.500 L 168.500 212.500 161.250 212.206 L 154 211.912 154 221.817 M 282.722 212.750 C 282.064 213.994, 283.550 238.463, 284.363 239.778 C 284.821 240.519, 287.458 241, 291.059 241 L 297 241 297 248 L 297 255 289.500 255 L 282 255 282 269.500 L 282 284 289.500 284 L 297 284 297.011 280.750 C 297.017 278.962, 297.301 275.813, 297.642 273.750 L 298.262 270 304.631 270 L 311 270 311 262.500 L 311 255 317.861 255 L 324.722 255 325.260 260.932 C 325.556 264.195, 326.095 267.345, 326.458 267.932 C 326.821 268.519, 329.004 269.006, 331.309 269.014 C 339.343 269.040, 339.637 269.318, 339.565 276.818 L 339.500 283.500 346.750 283.794 L 354 284.088 354 269.544 L 354 255 347 255 L 340 255 340 248.120 L 340 241.240 346.079 240.801 C 349.861 240.527, 352.501 239.820, 353.064 238.930 C 354.114 237.272, 354.296 223.438, 353.358 216.597 L 352.717 211.915 346.108 212.208 L 339.500 212.500 339.500 219.226 L 339.500 225.953 335 226.537 C 326.496 227.640, 325 229.374, 325 238.125 L 325 241 318 241 L 311 241 311 233.418 L 311 225.836 303.998 226.168 L 296.995 226.500 296.998 219.250 L 297 212 290.059 212 C 286.241 212, 282.940 212.338, 282.722 212.750 M 183.677 341.743 C 183.430 342.159, 182.907 345.313, 182.516 348.750 L 181.804 355 174.902 355 L 168 355 168 362 L 168 369 161 369 L 154 369 154 375.941 C 154 379.759, 154.338 383.088, 154.750 383.340 C 155.162 383.592, 161.122 383.405, 167.994 382.925 C 182.144 381.937, 183 381.449, 183 374.368 C 183 372.030, 183.444 369.843, 183.987 369.508 C 184.530 369.172, 187.680 369.204, 190.987 369.578 L 197 370.258 197 377.129 L 197 384 203.858 384 L 210.715 384 211.360 390.169 C 211.715 393.562, 212.265 396.599, 212.583 396.919 C 212.901 397.239, 219.200 397.647, 226.580 397.827 L 240 398.155 240 391.077 L 240 384 247.126 384 L 254.253 384 253.876 369.750 L 253.500 355.500 281 355.256 C 296.255 355.121, 309.133 355.417, 309.921 355.921 C 310.703 356.421, 311.603 358.775, 311.921 361.152 C 312.293 363.926, 313.037 365.546, 314 365.675 C 314.825 365.786, 318.061 366.159, 321.191 366.503 C 326.704 367.110, 326.893 367.229, 327.191 370.315 L 327.500 373.500 339.417 373.783 C 345.971 373.939, 351.741 373.659, 352.238 373.162 C 352.736 372.664, 353.143 369.629, 353.143 366.417 C 353.143 359.394, 351.776 358, 344.892 358 C 342.293 358, 340.002 357.506, 339.801 356.902 C 339.600 356.299, 336.421 355.563, 332.737 355.267 C 325.334 354.673, 325.493 354.878, 324.760 345 L 324.500 341.500 254.313 341.243 C 215.710 341.102, 183.924 341.327, 183.677 341.743 M 378.483 480.028 C 378.133 480.593, 378.894 481.942, 380.174 483.025 L 382.500 484.994 379.750 487.449 C 376.291 490.537, 376.308 491, 379.883 491 C 381.926 491, 382.919 490.417, 383.290 489 C 383.577 487.900, 384.305 487, 384.906 487 C 385.508 487, 386 487.900, 386 489 C 386 490.556, 386.667 491, 389 491 C 392.573 491, 392.711 490.385, 389.826 487.314 L 387.651 485 389.835 482.676 C 392.178 480.182, 391.825 479, 388.740 479 C 387.654 479, 386.584 479.873, 386.290 481 C 386.002 482.100, 385.327 483, 384.790 483 C 384.252 483, 383.577 482.100, 383.290 481 C 382.742 478.904, 379.574 478.263, 378.483 480.028 M 394.653 479.681 C 394.278 480.055, 395.125 481.564, 396.533 483.035 L 399.094 485.708 396.547 487.377 C 393.154 489.600, 393.329 491, 397 491 C 399.333 491, 400 490.556, 400 489 C 400 487.900, 400.492 487, 401.094 487 C 401.695 487, 402.423 487.900, 402.710 489 C 403.081 490.417, 404.074 491, 406.117 491 C 409.692 491, 409.709 490.537, 406.250 487.449 L 403.500 484.994 405.750 483.087 C 408.823 480.482, 408.607 478.797, 405.250 479.184 C 403.693 479.363, 402.500 480.115, 402.500 480.917 C 402.500 483.183, 400.307 483.281, 399.721 481.041 C 399.207 479.074, 396.095 478.239, 394.653 479.681 M 411.653 479.681 C 411.278 480.055, 412.125 481.564, 413.533 483.035 L 416.094 485.708 413.547 487.377 C 410.154 489.600, 410.329 491, 414 491 C 416.333 491, 417 490.556, 417 489 C 417 487.900, 417.492 487, 418.094 487 C 418.695 487, 419.423 487.900, 419.710 489 C 420.081 490.417, 421.074 491, 423.117 491 C 426.692 491, 426.709 490.537, 423.250 487.449 L 420.500 484.994 422.750 483.087 C 425.823 480.482, 425.607 478.797, 422.250 479.184 C 420.693 479.363, 419.500 480.115, 419.500 480.917 C 419.500 483.183, 417.307 483.281, 416.721 481.041 C 416.207 479.074, 413.095 478.239, 411.653 479.681 M 428.483 480.028 C 428.133 480.593, 428.894 481.942, 430.174 483.025 L 432.500 484.994 429.750 487.449 C 426.291 490.537, 426.308 491, 429.883 491 C 431.926 491, 432.919 490.417, 433.290 489 C 433.577 487.900, 434.305 487, 434.906 487 C 435.508 487, 436 487.900, 436 489 C 436 490.556, 436.667 491, 439 491 C 442.573 491, 442.711 490.385, 439.826 487.314 L 437.651 485 439.835 482.676 C 442.178 480.182, 441.825 479, 438.740 479 C 437.654 479, 436.584 479.873, 436.290 481 C 436.002 482.100, 435.327 483, 434.790 483 C 434.252 483, 433.577 482.100, 433.290 481 C 432.742 478.904, 429.574 478.263, 428.483 480.028 M 445.483 480.028 C 445.133 480.593, 445.894 481.942, 447.174 483.025 L 449.500 484.994 446.750 487.449 C 443.291 490.537, 443.308 491, 446.883 491 C 448.926 491, 449.919 490.417, 450.290 489 C 450.577 487.900, 451.305 487, 451.906 487 C 452.508 487, 453 487.900, 453 489 C 453 490.556, 453.667 491, 456 491 C 459.573 491, 459.711 490.385, 456.826 487.314 L 454.651 485 456.835 482.676 C 459.178 480.182, 458.825 479, 455.740 479 C 454.654 479, 453.584 479.873, 453.290 481 C 453.002 482.100, 452.327 483, 451.790 483 C 451.252 483, 450.577 482.100, 450.290 481 C 449.742 478.904, 446.574 478.263, 445.483 480.028 M 78.728 539.722 C 80.503 539.943, 83.653 539.946, 85.728 539.730 C 87.802 539.513, 86.350 539.333, 82.500 539.328 C 78.650 539.324, 76.952 539.501, 78.728 539.722 M 421.250 539.728 C 423.313 539.944, 426.688 539.944, 428.750 539.728 C 430.813 539.513, 429.125 539.336, 425 539.336 C 420.875 539.336, 419.188 539.513, 421.250 539.728 M 300.198 540.711 C 302.619 541.081, 302.934 541.604, 303.267 545.811 L 303.640 550.500 303.820 545.250 L 304 540 300.750 540.150 C 297.802 540.286, 297.751 540.338, 300.198 540.711 M 204.272 546 C 204.272 548.475, 204.467 549.487, 204.706 548.250 C 204.944 547.013, 204.944 544.987, 204.706 543.750 C 204.467 542.513, 204.272 543.525, 204.272 546" stroke="none" fill="#d3d2d2" fill-rule="evenodd"/></svg>